<svg width="25" height="25" viewBox="0 0 25 25" fill="none" xmlns="http://www.w3.org/2000/svg">
<path fill-rule="evenodd" clip-rule="evenodd" d="M12.4921 22.5C18.0115 22.5 22.4858 18.0228 22.4858 12.5C22.4858 6.97715 18.0115 2.5 12.4921 2.5C6.97274 2.5 2.49841 6.97715 2.49841 12.5C2.49841 18.0228 6.97274 22.5 12.4921 22.5ZM13.7413 7.5C13.7413 6.80964 13.182 6.25 12.4921 6.25C11.8022 6.25 11.2429 6.80964 11.2429 7.5V12.5C11.2429 12.8315 11.3745 13.1495 11.6088 13.3839L15.1421 16.9194C15.6299 17.4076 16.4209 17.4076 16.9087 16.9194C17.3966 16.4313 17.3966 15.6398 16.9087 15.1517L13.7413 11.9822V7.5Z" fill="white"/>
</svg>
