<svg width="25" height="25" viewBox="0 0 25 25" fill="none" xmlns="http://www.w3.org/2000/svg">
<path d="M13.3754 2.86612C12.8876 2.37796 12.0966 2.37796 11.6088 2.86612L2.8643 11.6161C2.37645 12.1043 2.37645 12.8957 2.8643 13.3839C3.35215 13.872 4.1431 13.872 4.63095 13.3839L4.99684 13.0178V21.25C4.99684 21.9404 5.55613 22.5 6.24605 22.5H8.74448C9.4344 22.5 9.99369 21.9404 9.99369 21.25V18.75C9.99369 18.0596 10.553 17.5 11.2429 17.5H13.7413C14.4313 17.5 14.9905 18.0596 14.9905 18.75V21.25C14.9905 21.9404 15.5498 22.5 16.2398 22.5H18.7382C19.4281 22.5 19.9874 21.9404 19.9874 21.25V13.0178L20.3533 13.3839C20.8411 13.872 21.6321 13.872 22.1199 13.3839C22.6078 12.8957 22.6078 12.1043 22.1199 11.6161L13.3754 2.86612Z" fill="white"/>
</svg>
