<svg width="25" height="25" viewBox="0 0 25 25" fill="none" xmlns="http://www.w3.org/2000/svg">
<path d="M2.50216 7.355L12.4921 12.3525L22.4821 7.355C22.4451 6.71805 22.1661 6.11936 21.7023 5.68153C21.2385 5.24371 20.625 4.99988 19.9874 5H4.99684C4.35922 4.99988 3.74569 5.24371 3.28189 5.68153C2.8181 6.11936 2.53914 6.71805 2.50216 7.355Z" fill="white"/>
<path d="M22.4858 10.1475L12.4921 15.1475L2.49841 10.1475V17.5C2.49841 18.163 2.76164 18.7989 3.23018 19.2678C3.69873 19.7366 4.33421 20 4.99684 20H19.9874C20.65 20 21.2855 19.7366 21.754 19.2678C22.2226 18.7989 22.4858 18.163 22.4858 17.5V10.1475Z" fill="white"/>
</svg>
