<svg width="25" height="25" viewBox="0 0 25 25" fill="none" xmlns="http://www.w3.org/2000/svg">
<path d="M2.49841 3.75C2.49841 3.05964 3.0577 2.5 3.74763 2.5H6.43702C7.04769 2.5 7.56885 2.94177 7.66924 3.5445L8.5928 9.08934C8.68296 9.63063 8.40976 10.1675 7.91925 10.4129L5.98529 11.3805C7.37979 14.8479 10.1457 17.6156 13.6109 19.0109L14.5779 17.0758C14.8232 16.5849 15.3597 16.3116 15.9006 16.4018L21.442 17.3259C22.0443 17.4264 22.4858 17.9479 22.4858 18.5589V21.25C22.4858 21.9404 21.9265 22.5 21.2366 22.5H18.7382C9.7692 22.5 2.49841 15.2246 2.49841 6.25V3.75Z" fill="white"/>
</svg>
