<svg width="35" height="36" viewBox="0 0 35 36" fill="none" xmlns="http://www.w3.org/2000/svg">
<circle cx="18" cy="17.2581" r="17" transform="rotate(-180 18 17.2581)" fill="white"/>
<g filter="url(#filter0_i_602_26)">
<path fill-rule="evenodd" clip-rule="evenodd" d="M22.2374 9.52062C22.9209 10.204 22.9209 11.3121 22.2374 11.9955L16.4749 17.7581L22.2374 23.5206C22.9209 24.204 22.9209 25.3121 22.2374 25.9955C21.554 26.6789 20.446 26.6789 19.7626 25.9955L12.7626 18.9955C12.0791 18.3121 12.0791 17.204 12.7626 16.5206L19.7626 9.52062C20.446 8.8372 21.554 8.8372 22.2374 9.52062Z" fill="black"/>
</g>
<path fill-rule="evenodd" clip-rule="evenodd" d="M22.2374 9.52062C22.9209 10.204 22.9209 11.3121 22.2374 11.9955L16.4749 17.7581L22.2374 23.5206C22.9209 24.204 22.9209 25.3121 22.2374 25.9955C21.554 26.6789 20.446 26.6789 19.7626 25.9955L12.7626 18.9955C12.0791 18.3121 12.0791 17.204 12.7626 16.5206L19.7626 9.52062C20.446 8.8372 21.554 8.8372 22.2374 9.52062Z" stroke="black" stroke-linecap="round" stroke-linejoin="round"/>
<defs>
<filter id="filter0_i_602_26" x="11.75" y="8.50806" width="11.5" height="22.5" filterUnits="userSpaceOnUse" color-interpolation-filters="sRGB">
<feFlood flood-opacity="0" result="BackgroundImageFix"/>
<feBlend mode="normal" in="SourceGraphic" in2="BackgroundImageFix" result="shape"/>
<feColorMatrix in="SourceAlpha" type="matrix" values="0 0 0 0 0 0 0 0 0 0 0 0 0 0 0 0 0 0 127 0" result="hardAlpha"/>
<feOffset dy="4"/>
<feGaussianBlur stdDeviation="2"/>
<feComposite in2="hardAlpha" operator="arithmetic" k2="-1" k3="1"/>
<feColorMatrix type="matrix" values="0 0 0 0 0 0 0 0 0 0 0 0 0 0 0 0 0 0 0.25 0"/>
<feBlend mode="normal" in2="shape" result="effect1_innerShadow_602_26"/>
</filter>
</defs>
</svg>
